<svg id="레이어_1" data-name="레이어 1" xmlns="http://www.w3.org/2000/svg" viewBox="0 0 54 54"><defs><style>.cls-1{fill:#dedfe0;}.cls-2{fill:#5327ff;}.cls-3{fill:#fff;}.cls-4{fill:#83ffca;}</style></defs><rect class="cls-1" x="3.01" y="3.01" width="47.99" height="47.99" rx="23.99"/><rect class="cls-2" x="6.5" y="6.5" width="41" height="41" rx="20.5"/><ellipse class="cls-3" cx="35.5" cy="28.09" rx="12.09" ry="6.1" transform="translate(-4.34 6.6) rotate(-10.01)"/><polygon class="cls-4" points="18.88 17.21 21.22 16.44 18.88 15.66 19.99 13.46 17.78 14.56 17 12.22 16.23 14.56 14.02 13.46 15.13 15.66 12.79 16.44 15.13 17.21 14.02 19.42 16.23 18.31 17 20.66 17.78 18.31 19.99 19.42 18.88 17.21"/><path class="cls-4" d="M35.07,25.64c-15.48,2.73-27.55,7.63-27,10.94s13.6,3.79,29.07,1.06A114.44,114.44,0,0,0,51,34.38V23.9A112.33,112.33,0,0,0,35.07,25.64Z"/><ellipse class="cls-2" cx="36.65" cy="34.62" rx="10.88" ry="1.9" transform="translate(-5.46 6.89) rotate(-10)"/><path class="cls-2" d="M27,3A24,24,0,0,1,51,27h0A24,24,0,0,1,3,27H3A24,24,0,0,1,27,3m0-3A27,27,0,1,0,54,27,27,27,0,0,0,27,0Z"/></svg>