<svg xmlns="http://www.w3.org/2000/svg"  viewBox="0 0 48 48" width="48px" height="48px"><path fill="#eceff1" d="M36,8.027C32.655,5.51,28.509,4,24,4s-8.655,1.51-12,4.027v31.946C15.345,42.49,19.491,44,24,44 s8.655-1.51,12-4.027V8.027z"/><path fill="#ff3d00" d="M44,24c0-6.537-3.15-12.323-8-15.973v31.946C40.85,36.323,44,30.537,44,24z"/><path fill="#ff3d00" d="M4,24c0,6.537,3.15,12.323,8,15.973V8.027C7.15,11.677,4,17.463,4,24z"/><path fill="#ff3d00" d="M33,23h-3l-0.039-1.984l-2.313,1.156L28,17l-2,1l-1.992-3L22,18l-2-1l0.352,5.145l-2.313-1.129	c0,0-0.043,1.973-0.039,1.984h-3l2,3l-2,1l4,2v2c0,0,2.536-0.138,4-0.212V33h2v-2.212C26.464,30.862,29,31,29,31v-2l4-2l-2-1L33,23z"/></svg>