<svg width="144" height="56" viewBox="0 0 144 56" fill="none" xmlns="http://www.w3.org/2000/svg">
<g clip-path="url(#clip0)">
<path d="M137.13 3H6C4.34315 3 3 4.34315 3 6V49.76C3 51.4169 4.34315 52.76 6 52.76H137.13C138.787 52.76 140.13 51.4169 140.13 49.76V6C140.13 4.34315 138.787 3 137.13 3Z" fill="#292B2D"/>
<path d="M137.13 3C137.926 3 138.689 3.31607 139.251 3.87868C139.814 4.44129 140.13 5.20435 140.13 6V49.76C140.13 50.5556 139.814 51.3187 139.251 51.8813C138.689 52.4439 137.926 52.76 137.13 52.76H6C5.20435 52.76 4.44129 52.4439 3.87868 51.8813C3.31607 51.3187 3 50.5556 3 49.76V6C3 5.20435 3.31607 4.44129 3.87868 3.87868C4.44129 3.31607 5.20435 3 6 3H137.13ZM137.13 0H6C4.4087 0 2.88258 0.632141 1.75736 1.75736C0.632141 2.88258 0 4.4087 0 6L0 49.76C0 51.3513 0.632141 52.8774 1.75736 54.0026C2.88258 55.1279 4.4087 55.76 6 55.76H137.13C138.721 55.76 140.247 55.1279 141.373 54.0026C142.498 52.8774 143.13 51.3513 143.13 49.76V6C143.13 4.4087 142.498 2.88258 141.373 1.75736C140.247 0.632141 138.721 0 137.13 0V0Z" fill="#83FFCA"/>
<path d="M113.3 49.8599C126.4 49.8599 137.02 40.0191 137.02 27.8799C137.02 15.7407 126.4 5.8999 113.3 5.8999C100.2 5.8999 89.58 15.7407 89.58 27.8799C89.58 40.0191 100.2 49.8599 113.3 49.8599Z" fill="#83FFCA"/>
<path d="M6.10999 30.0001V6.86011H20.28V29.5601C20.28 35.9901 22.74 38.3901 26.71 38.3901C30.68 38.3901 33.13 35.9901 33.13 29.5601V6.86011H47.07V30.0001C47.07 42.6201 39.5 49.8801 26.59 49.8801C13.68 49.8801 6.10999 42.6001 6.10999 30.0001Z" fill="#83FFCA"/>
<path d="M67.12 17.5499V24.7599H84.66V35.4499H67.12V48.8999H53V6.8999H87.12V17.5499H67.12Z" fill="#83FFCA"/>
<path d="M12.16 9.79004H9.16003V21.54H12.16V9.79004Z" fill="#5327FF"/>
<path d="M11.74 26.2201L13.09 25.7801L11.74 25.3301L12.38 24.0601L11.11 24.7001L10.66 23.3501L10.22 24.7001L8.94998 24.0601L9.57998 25.3301L8.22998 25.7801L9.57998 26.2201L8.94998 27.4901L10.22 26.8501L10.66 28.2001L11.11 26.8501L12.38 27.4901L11.74 26.2201Z" fill="#5327FF"/>
<path d="M59.01 9.79004H56.01V21.54H59.01V9.79004Z" fill="#5327FF"/>
<path d="M58.59 26.2201L59.94 25.7801L58.59 25.3301L59.22 24.0601L57.95 24.7001L57.51 23.3501L57.06 24.7001L55.79 24.0601L56.43 25.3301L55.08 25.7801L56.43 26.2201L55.79 27.4901L57.06 26.8501L57.51 28.2001L57.95 26.8501L59.22 27.4901L58.59 26.2201Z" fill="#5327FF"/>
<path d="M123.602 35.0158C129.754 33.9311 134.297 30.5386 133.751 27.4384C133.204 24.3382 127.774 22.7043 121.623 23.789C115.471 24.8736 110.928 28.2661 111.474 31.3663C112.021 34.4665 117.451 36.1004 123.602 35.0158Z" fill="white"/>
<path d="M105.48 18.15L107.67 17.43L105.48 16.7L106.52 14.64L104.46 15.68L103.73 13.48L103.01 15.68L100.94 14.64L101.98 16.7L99.79 17.43L101.98 18.15L100.94 20.21L103.01 19.18L103.73 21.37L104.46 19.18L106.52 20.21L105.48 18.15Z" fill="#5327FF"/>
<path d="M136.9 25.49C131.968 25.6884 127.056 26.2297 122.2 27.11C107.73 29.66 96.4399 34.24 96.9999 37.34C97.5599 40.44 109.72 40.88 124.19 38.34C128.049 37.6688 131.871 36.7977 135.64 35.73C136.561 33.2163 137.022 30.5571 137 27.88C137.007 27.0821 136.974 26.2844 136.9 25.49Z" fill="#5327FF"/>
<path d="M123.986 37.2668C129.518 36.2914 133.863 34.7159 133.693 33.7478C133.522 32.7797 128.9 32.7855 123.368 33.7609C117.837 34.7362 113.491 36.3117 113.662 37.2798C113.832 38.2479 118.455 38.2421 123.986 37.2668Z" fill="#83FFCA"/>
</g>
<defs>
<clipPath id="clip0">
<rect width="143.13" height="55.76" fill="white"/>
</clipPath>
</defs>
</svg>
