<svg xmlns="http://www.w3.org/2000/svg" width="122.09" height="41" viewBox="0 0 122.09 41">
  <g id="그룹_31" data-name="그룹 31" transform="translate(-713.547 -278.482)">
    <g id="그룹_29" data-name="그룹 29" transform="translate(713.547 278.482)">
      <path id="패스_45" data-name="패스 45" d="M319.48,885.384V863.819H332.7v21.172c0,5.994,2.3,8.234,5.992,8.234s5.993-2.24,5.993-8.234V863.819h12.995v21.565c0,11.761-7.057,18.539-19.1,18.539S319.48,897.145,319.48,885.384Z" transform="translate(-319.48 -862.923)" fill="#5324ff"/>
      <path id="패스_46" data-name="패스 46" d="M379.542,873.788v6.722H395.9v9.969H379.542v12.546H366.323V863.819h31.87v9.969Z" transform="translate(-322.637 -862.923)" fill="#5324ff"/>
      <path id="패스_47" data-name="패스 47" d="M402.949,883.358c0-11.875,9.353-20.5,22.123-20.5s22.124,8.626,22.124,20.5-9.353,20.5-22.124,20.5S402.949,895.232,402.949,883.358Zm30.918,0c0-6.1-3.922-9.8-8.794-9.8s-8.793,3.7-8.793,9.8,3.922,9.8,8.793,9.8S433.867,889.462,433.867,883.358Z" transform="translate(-325.106 -862.858)" fill="#5324ff"/>
      <rect id="사각형_804" data-name="사각형 804" width="0.933" height="9.089" transform="translate(3.27 4.858)" fill="#83ffca" stroke="#83ffca" stroke-miterlimit="10" stroke-width="2"/>
      <rect id="사각형_805" data-name="사각형 805" width="0.933" height="9.089" transform="translate(47.317 4.858)" fill="#83ffca" stroke="#83ffca" stroke-miterlimit="10" stroke-width="2"/>
      <path id="패스_48" data-name="패스 48" d="M409.19,877.281l-.838-.408a18.066,18.066,0,0,1,7.281-7.735l.466.81A17.12,17.12,0,0,0,409.19,877.281Z" transform="translate(-325.47 -863.281)" fill="#83ffca" stroke="#83ffca" stroke-miterlimit="10" stroke-width="2"/>
    </g>
  </g>
</svg>
