<svg id="레이어_1" data-name="레이어 1" xmlns="http://www.w3.org/2000/svg" viewBox="0 0 143.13 55.76"><defs><style>.cls-1{fill:#fff;}.cls-2{fill:#5327ff;}.cls-3{fill:#83ffca;}</style></defs><rect class="cls-1" x="3" y="3" width="137.13" height="49.76" rx="3"/><path class="cls-2" d="M137.13,3a3,3,0,0,1,3,3V49.76a3,3,0,0,1-3,3H6a3,3,0,0,1-3-3V6A3,3,0,0,1,6,3H137.13m0-3H6A6,6,0,0,0,0,6V49.76a6,6,0,0,0,6,6H137.13a6,6,0,0,0,6-6V6a6,6,0,0,0-6-6Z"/><ellipse class="cls-2" cx="113.3" cy="27.88" rx="23.72" ry="21.98"/><path class="cls-2" d="M6.11,30V6.86H20.28v22.7c0,6.43,2.46,8.83,6.43,8.83s6.42-2.4,6.42-8.83V6.86H47.07V30c0,12.62-7.57,19.88-20.48,19.88S6.11,42.6,6.11,30Z"/><path class="cls-2" d="M67.12,17.55v7.21H84.66V35.45H67.12V48.9H53v-42H87.12V17.55Z"/><rect class="cls-3" x="9.16" y="9.79" width="3" height="11.75"/><polygon class="cls-3" points="11.74 26.22 13.09 25.78 11.74 25.33 12.38 24.06 11.11 24.7 10.66 23.35 10.22 24.7 8.95 24.06 9.58 25.33 8.23 25.78 9.58 26.22 8.95 27.49 10.22 26.85 10.66 28.2 11.11 26.85 12.38 27.49 11.74 26.22"/><rect class="cls-3" x="56.01" y="9.79" width="3" height="11.75"/><polygon class="cls-3" points="58.59 26.22 59.94 25.78 58.59 25.33 59.22 24.06 57.95 24.7 57.51 23.35 57.06 24.7 55.79 24.06 56.43 25.33 55.08 25.78 56.43 26.22 55.79 27.49 57.06 26.85 57.51 28.2 57.95 26.85 59.22 27.49 58.59 26.22"/><ellipse class="cls-1" cx="122.61" cy="29.4" rx="11.31" ry="5.7" transform="translate(-3.24 21.74) rotate(-10)"/><polygon class="cls-3" points="105.48 18.15 107.67 17.43 105.48 16.7 106.52 14.64 104.46 15.68 103.73 13.48 103.01 15.68 100.94 14.64 101.98 16.7 99.79 17.43 101.98 18.15 100.94 20.21 103.01 19.18 103.73 21.37 104.46 19.18 106.52 20.21 105.48 18.15"/><path class="cls-3" d="M136.9,25.49a106.4,106.4,0,0,0-14.7,1.62C107.73,29.66,96.44,34.24,97,37.34s12.72,3.54,27.19,1a113.11,113.11,0,0,0,11.45-2.61A22.27,22.27,0,0,0,137,27.88,23.46,23.46,0,0,0,136.9,25.49Z"/><ellipse class="cls-2" cx="123.68" cy="35.51" rx="10.17" ry="1.78" transform="translate(-4.29 22.02) rotate(-10)"/></svg>