<svg id="레이어_1" data-name="레이어 1" xmlns="http://www.w3.org/2000/svg" viewBox="0 0 54 54"><defs><style>.cls-1{fill:#83ffca;}.cls-2{fill:#fff;}.cls-3{fill:#5327ff;}</style></defs><path class="cls-1" d="M48,3a3,3,0,0,1,3,3V48a3,3,0,0,1-3,3H6a3,3,0,0,1-3-3V6A3,3,0,0,1,6,3H48m0-3H6A6,6,0,0,0,0,6V48a6,6,0,0,0,6,6H48a6,6,0,0,0,6-6V6a6,6,0,0,0-6-6Z"/><rect class="cls-1" x="6.5" y="6.5" width="41" height="41" rx="2.52"/><ellipse class="cls-2" cx="35.5" cy="28.09" rx="12.09" ry="6.1" transform="translate(-4.34 6.6) rotate(-10.01)"/><polygon class="cls-3" points="17.19 15.53 19.53 14.75 17.19 13.97 18.3 11.77 16.09 12.88 15.32 10.53 14.54 12.88 12.34 11.77 13.45 13.97 11.1 14.75 13.45 15.53 12.34 17.73 14.54 16.62 15.32 18.97 16.09 16.62 18.3 17.73 17.19 15.53"/><path class="cls-3" d="M35.07,25.64c-15.48,2.73-27.55,7.63-27,10.94s13.6,3.79,29.07,1.06A114.44,114.44,0,0,0,51,34.38V23.9A112.33,112.33,0,0,0,35.07,25.64Z"/><ellipse class="cls-1" cx="36.65" cy="34.62" rx="10.88" ry="1.9" transform="translate(-5.46 6.89) rotate(-10)"/></svg>